# xmcd
#
# Track frame offsets: 
#        150
#        8463
#        21144
#        33488
#        43236
#        54000
#        63368
#        73764
#        83710
#        101359
#        117015
#        127123
#        140454
#
# Disc length: 1998 seconds
#
# Revision: 0
# Processed by: cddbd v1.5.2PL0 Copyright (c) Steve Scherf et al.
# Submitted via: ExactAudioCopy v0.99pb5
#
DISCID=a307cc0d
DTITLE=Randal Morton and Terry Ferguson - Twin Banjos
DYEAR=2010
DGENRE=Bluegrass
TTITLE0=Bye Bye Blues
TTITLE1=Silver Bell - Redwing
TTITLE2=Home Sweet Home
TTITLE3=Bill Bailey
TTITLE4=Old Spinning Wheel
TTITLE5=Red Haired Boy
TTITLE6=Limehouse Blues
TTITLE7=Bells of St. Mary's
TTITLE8=Green River Road
TTITLE9=Bully of the Town
TTITLE10=Chinese Breakdown
TTITLE11=The World Is Waiting For The Sunrise
TTITLE12=Feudin' Banjos
EXTD=
EXTT0=
EXTT1=
EXTT2=
EXTT3=
EXTT4=
EXTT5=
EXTT6=
EXTT7=
EXTT8=
EXTT9=
EXTT10=
EXTT11=
EXTT12=
PLAYORDER=
